<mxfile host="app.diagrams.net" modified="2021-06-11T20:04:14.955Z" agent="5.0 (X11; Linux x86_64) AppleWebKit/537.36 (KHTML, like Gecko) Chrome/91.0.4472.101 Safari/537.36" etag="_QoZW3Ob-14gesOz8MxD" version="14.7.7" type="github">
  <diagram id="GWaFEUvVle04y2DJGK1i" name="Page-1">
    <mxGraphModel dx="2288" dy="1479" grid="1" gridSize="10" guides="1" tooltips="1" connect="1" arrows="1" fold="1" page="1" pageScale="1" pageWidth="1169" pageHeight="827" math="0" shadow="0">
      <root>
        <mxCell id="0" />
        <mxCell id="1" parent="0" />
        <mxCell id="kVEoM7wyfx6DlVpUFISO-16" style="rounded=0;orthogonalLoop=1;jettySize=auto;html=1;entryX=0.5;entryY=1;entryDx=0;entryDy=0;endArrow=block;endFill=0;edgeStyle=orthogonalEdgeStyle;dashed=1;" edge="1" parent="1" source="kVEoM7wyfx6DlVpUFISO-14" target="kVEoM7wyfx6DlVpUFISO-24">
          <mxGeometry relative="1" as="geometry">
            <mxPoint x="-75" y="159.99999999999977" as="targetPoint" />
          </mxGeometry>
        </mxCell>
        <mxCell id="kVEoM7wyfx6DlVpUFISO-14" value="ControllerNode" style="html=1;fontStyle=1" vertex="1" parent="1">
          <mxGeometry x="50" y="310" width="110" height="50" as="geometry" />
        </mxCell>
        <mxCell id="kVEoM7wyfx6DlVpUFISO-15" value="" style="shape=image;verticalLabelPosition=bottom;labelBackgroundColor=#ffffff;verticalAlign=top;aspect=fixed;imageAspect=0;image=https://i.stack.imgur.com/2ajCN.gif;imageBorder=#000000;" vertex="1" parent="1">
          <mxGeometry y="-300" width="401" height="275" as="geometry" />
        </mxCell>
        <mxCell id="kVEoM7wyfx6DlVpUFISO-20" style="edgeStyle=orthogonalEdgeStyle;rounded=0;orthogonalLoop=1;jettySize=auto;html=1;entryX=0.5;entryY=1;entryDx=0;entryDy=0;endArrow=block;endFill=0;dashed=1;exitX=0;exitY=0.5;exitDx=0;exitDy=0;" edge="1" parent="1" source="kVEoM7wyfx6DlVpUFISO-17" target="kVEoM7wyfx6DlVpUFISO-24">
          <mxGeometry relative="1" as="geometry">
            <mxPoint x="-75" y="159.99999999999977" as="targetPoint" />
            <Array as="points">
              <mxPoint x="50" y="560" />
              <mxPoint x="-75" y="560" />
            </Array>
          </mxGeometry>
        </mxCell>
        <mxCell id="kVEoM7wyfx6DlVpUFISO-17" value="ControllerNode" style="html=1;fontStyle=1" vertex="1" parent="1">
          <mxGeometry x="50" y="540" width="110" height="50" as="geometry" />
        </mxCell>
        <mxCell id="kVEoM7wyfx6DlVpUFISO-19" style="edgeStyle=orthogonalEdgeStyle;rounded=0;orthogonalLoop=1;jettySize=auto;html=1;endArrow=block;endFill=0;entryX=0.5;entryY=1;entryDx=0;entryDy=0;dashed=1;" edge="1" parent="1" source="kVEoM7wyfx6DlVpUFISO-18" target="kVEoM7wyfx6DlVpUFISO-24">
          <mxGeometry relative="1" as="geometry">
            <mxPoint x="-50" y="180" as="targetPoint" />
          </mxGeometry>
        </mxCell>
        <mxCell id="kVEoM7wyfx6DlVpUFISO-18" value="ControllerNode" style="html=1;fontStyle=1" vertex="1" parent="1">
          <mxGeometry x="50" y="420" width="110" height="50" as="geometry" />
        </mxCell>
        <mxCell id="kVEoM7wyfx6DlVpUFISO-24" value="&lt;p style=&quot;margin: 0px ; margin-top: 4px ; text-align: center&quot;&gt;&lt;i&gt;&amp;lt;&amp;lt;Interface&amp;gt;&amp;gt;&lt;/i&gt;&lt;br&gt;&lt;b&gt;IControllerNode&lt;/b&gt;&lt;/p&gt;&lt;hr size=&quot;1&quot;&gt;&lt;p style=&quot;margin: 0px ; margin-left: 4px&quot;&gt;- reference_traj: Traj&lt;/p&gt;&lt;p style=&quot;margin: 0px ; margin-left: 4px&quot;&gt;- vehicle_state: VehicleState&lt;br&gt;&lt;/p&gt;&lt;p style=&quot;margin: 0px ; margin-left: 4px&quot;&gt;- glock_last: Time&lt;br&gt;&lt;/p&gt;&lt;p style=&quot;margin: 0px ; margin-left: 4px&quot;&gt;- gclock_sub: ROS2Sub&amp;lt;Time&amp;gt;&lt;/p&gt;&lt;p style=&quot;margin: 0px ; margin-left: 4px&quot;&gt;- planner_sub: ROS2Sub&amp;lt;Traj&amp;gt;&lt;br&gt;- control_pub: ROS2Pub&amp;lt;ControlCmd&amp;gt;&lt;/p&gt;&lt;hr size=&quot;1&quot;&gt;&lt;p style=&quot;margin: 0px ; margin-left: 4px&quot;&gt;+ gclockCallback(Time t): void&lt;/p&gt;&lt;p style=&quot;margin: 0px ; margin-left: 4px&quot;&gt;+ plannerCallback(Traj p): void&lt;/p&gt;&lt;p style=&quot;margin: 0px ; margin-left: 4px&quot;&gt;+ virtual storeTraj(Traj p): void&lt;br&gt;~+ solve(): ControlCmd&lt;/p&gt;" style="verticalAlign=top;align=left;overflow=fill;fontSize=12;fontFamily=Helvetica;html=1;" vertex="1" parent="1">
          <mxGeometry x="-190" y="40" width="230" height="240" as="geometry" />
        </mxCell>
        <mxCell id="kVEoM7wyfx6DlVpUFISO-25" value="gclockCallback() has default implementation, the virtual method is solve()." style="text;html=1;align=center;verticalAlign=middle;resizable=0;points=[];autosize=1;strokeColor=none;" vertex="1" parent="1">
          <mxGeometry x="-280" width="410" height="20" as="geometry" />
        </mxCell>
        <mxCell id="kVEoM7wyfx6DlVpUFISO-26" value="&lt;p style=&quot;margin: 0px ; margin-top: 4px ; text-align: center&quot;&gt;&lt;b&gt;ControlSafetyLayerNode&lt;/b&gt;&lt;/p&gt;&lt;hr size=&quot;1&quot;&gt;&lt;p style=&quot;margin: 0px ; margin-left: 4px&quot;&gt;- safety_conf: Collection&amp;lt;Param&amp;gt;&lt;/p&gt;&lt;p style=&quot;margin: 0px ; margin-left: 4px&quot;&gt;- control_buffer: OrderedBuffer&amp;lt;ControlCmd&amp;gt;&lt;/p&gt;&lt;p style=&quot;margin: 0px ; margin-left: 4px&quot;&gt;- param_sub: ROS2Sub&amp;lt;Collection&amp;lt;Param&amp;gt;&amp;gt;&lt;/p&gt;&lt;p style=&quot;margin: 0px ; margin-left: 4px&quot;&gt;- control_sub: ROS2Sub&amp;lt;ControlCmd&amp;gt;&lt;br&gt;&lt;/p&gt;&lt;p style=&quot;margin: 0px ; margin-left: 4px&quot;&gt;- gclock_sub: ROS2Sub&amp;lt;Time&amp;gt;&lt;br&gt;&lt;/p&gt;&lt;p style=&quot;margin: 0px ; margin-left: 4px&quot;&gt;- control_pub: ROS2Pub&amp;lt;ControlCmd&amp;gt;&lt;br&gt;&lt;/p&gt;&lt;hr size=&quot;1&quot;&gt;&lt;p style=&quot;margin: 0px 0px 0px 4px&quot;&gt;+ paramCallback(Collection&amp;lt;Param&amp;gt; ps)&lt;br&gt;&lt;/p&gt;&lt;p style=&quot;margin: 0px 0px 0px 4px&quot;&gt;+ controlCallback(ControlCmd control_cmd)&lt;br&gt;&lt;/p&gt;&lt;p style=&quot;margin: 0px 0px 0px 4px&quot;&gt;+ gclockCallback(Time t): void&lt;/p&gt;" style="verticalAlign=top;align=left;overflow=fill;fontSize=12;fontFamily=Helvetica;html=1;" vertex="1" parent="1">
          <mxGeometry x="570" y="65" width="300" height="190" as="geometry" />
        </mxCell>
        <mxCell id="kVEoM7wyfx6DlVpUFISO-28" value="&lt;b&gt;Visibility Legend:&amp;nbsp;&lt;/b&gt;&lt;br&gt;-&amp;nbsp;&lt;span style=&quot;white-space: pre&quot;&gt;	&lt;/span&gt;for private member&lt;br&gt;+&amp;nbsp;&lt;span style=&quot;white-space: pre&quot;&gt;	&lt;/span&gt;for public member&lt;br&gt;~+ &lt;span style=&quot;white-space: pre&quot;&gt;	&lt;/span&gt;for pure virtual member&amp;nbsp;" style="text;html=1;align=left;verticalAlign=middle;resizable=0;points=[];autosize=1;strokeColor=#666666;fontColor=#333333;fillColor=#FFFFFF;" vertex="1" parent="1">
          <mxGeometry x="-170" y="-85" width="170" height="60" as="geometry" />
        </mxCell>
        <mxCell id="kVEoM7wyfx6DlVpUFISO-30" style="edgeStyle=orthogonalEdgeStyle;rounded=0;orthogonalLoop=1;jettySize=auto;html=1;entryX=0.5;entryY=1;entryDx=0;entryDy=0;endArrow=oval;endFill=0;" edge="1" parent="1" source="kVEoM7wyfx6DlVpUFISO-29" target="kVEoM7wyfx6DlVpUFISO-26">
          <mxGeometry relative="1" as="geometry" />
        </mxCell>
        <mxCell id="kVEoM7wyfx6DlVpUFISO-29" value="&lt;b&gt;ControlSafetyLayerNode&lt;br&gt;&lt;/b&gt;" style="html=1;" vertex="1" parent="1">
          <mxGeometry x="380" y="310" width="150" height="50" as="geometry" />
        </mxCell>
      </root>
    </mxGraphModel>
  </diagram>
</mxfile>
